# xmcd
#
# Track frame offsets:
#	150
#	10710
#	22983
#	34247
#	45730
#	61900
#	74532
#	86792
#	104224
#	123373
#	137877
#	150100
#	162149
#	173301
#	184972
#	201218
#	212114
#	225604
#	235186
#	246516
#	259111
#	272471
#	281780
#	293312
#	304346
#	314771
#
# Disc length: 4351 seconds
#
# Revision: 1
# Processed by: cddbd v1.4PL0 Copyright (c) Steve Scherf et al.
# Submitted via: CDmax 2.0
#
DISCID=7510fd1a
DTITLE=Country Classics
DYEAR=1900
DGENRE=Country
TTITLE0=Faron Young - Hello Walls
TTITLE1=Merle Haggard - Okie From Muskogee
TTITLE2=Donna Fargo - The Happiest Girl In The Whole USA
TTITLE3=Freddy Fender - Before The Next Teardrop Falls
TTITLE4=Cal Smith - Country Bumpkin
TTITLE5=Don Williams - You're My Best Friend
TTITLE6=Patsy Cline -Crazy
TTITLE7=Marie Osmond and Dan Seals - Meet Me In Montana
TTITLE8=Bobbie Gentry - Ode To Billie Joe
TTITLE9=Jeannie C. Riley - Harper Valley P.T.A.
TTITLE10=Johnny Cash - I Walk The Line
TTITLE11=Glen Campbell - Galveston
TTITLE12=Conway Twitty - Hello Darlin'
TTITLE13=Tenessee Ernie Ford - Sixteen Tons
TTITLE14=Billie Jo Spears - Blanket On The Ground
TTITLE15=Buck Owens - My Heart Skips A Beat
TTITLE16=Loretta Lynn - Coal Minners Daughter
TTITLE17=George Jones - The Race Is On
TTITLE18=Sonny James - Young Love
TTITLE19=Susay Raye - LA International Airport
TTITLE20=Mel McDaniel - Baby's Got Her Blue Jeans On
TTITLE21=Glen Campbell and Bobbie Gentry - Let It Be Me
TTITLE22=Wanda Jackson - In The Middle Of A Heartache
TTITLE23=Freddie Hart - Easy Lovin'
TTITLE24=Ferlin Husky - Wings Of A Dove
TTITLE25=Tommy Overstreet - Heaven Is My Woman's Love
EXTD=
EXTT0=
EXTT1=
EXTT2=
EXTT3=
EXTT4=
EXTT5=
EXTT6=
EXTT7=
EXTT8=
EXTT9=
EXTT10=
EXTT11=
EXTT12=
EXTT13=
EXTT14=
EXTT15=
EXTT16=
EXTT17=
EXTT18=
EXTT19=
EXTT20=
EXTT21=
EXTT22=
EXTT23=
EXTT24=
EXTT25=
PLAYORDER=
